<?xml version="1.0" encoding="UTF-8"?>
<svg version="1.1" xmlns="http://www.w3.org/2000/svg" width="512" height="512">
<path d="M0 0 C1.01790619 0.00215515 2.03581238 0.0043103 3.08456421 0.00653076 C17.69363523 0.05620146 32.02575853 0.30709809 46.375 3.3125 C47.34985352 3.51117676 48.32470703 3.70985352 49.32910156 3.91455078 C97.7109774 14.03517194 141.69928269 35.9516877 177.375 70.3125 C178.3640332 71.26068604 178.3640332 71.26068604 179.37304688 72.22802734 C188.86130305 81.37247479 197.6012044 90.66984009 205.375 101.3125 C206.23306152 102.46355017 207.09113451 103.61459177 207.94921875 104.765625 C213.98736829 112.95680614 219.34595521 121.47054105 224.375 130.3125 C224.73948242 130.94430176 225.10396484 131.57610352 225.47949219 132.22705078 C247.08534998 169.97532572 256.85198095 212.74189997 256.6875 255.9375 C256.68534485 256.95540619 256.6831897 257.97331238 256.68096924 259.02206421 C256.63129854 273.63113523 256.38040191 287.96325853 253.375 302.3125 C253.07698486 303.77478027 253.07698486 303.77478027 252.77294922 305.26660156 C242.65232806 353.6484774 220.7358123 397.63678269 186.375 433.3125 C185.74287598 433.97185547 185.11075195 434.63121094 184.45947266 435.31054688 C175.31502521 444.79880305 166.01765991 453.5387044 155.375 461.3125 C154.22394983 462.17056152 153.07290823 463.02863451 151.921875 463.88671875 C143.73224019 469.92427396 135.22961724 475.30707302 126.375 480.3125 C125.66778809 480.7146875 124.96057617 481.116875 124.23193359 481.53125 C101.09654164 494.5566741 75.92537591 503.30551461 49.9375 508.625 C49.21860596 508.77235596 48.49971191 508.91971191 47.7590332 509.0715332 C33.08339502 511.86090125 18.55831162 512.66142619 3.64770508 512.62817383 C0.70811513 512.6250221 -2.2304558 512.64854926 -5.16992188 512.67382812 C-18.54306192 512.71848737 -31.43916711 511.51301542 -44.625 509.3125 C-46.33055054 509.03031616 -46.33055054 509.03031616 -48.07055664 508.74243164 C-91.33802759 500.97044532 -132.38793216 480.98345309 -165.625 452.3125 C-166.37007813 451.67828125 -167.11515625 451.0440625 -167.8828125 450.390625 C-181.38779833 438.57948485 -194.05918743 425.82889772 -204.625 411.3125 C-205.48149066 410.16255169 -206.33826433 409.01281411 -207.1953125 407.86328125 C-213.23534209 399.67315742 -218.61867614 391.16870382 -223.625 382.3125 C-224.0271875 381.60528809 -224.429375 380.89807617 -224.84375 380.16943359 C-237.8691741 357.03404164 -246.61801461 331.86287591 -251.9375 305.875 C-252.08485596 305.15610596 -252.23221191 304.43721191 -252.3840332 303.6965332 C-255.35789088 288.05024391 -255.99800362 272.57681954 -255.9375 256.6875 C-255.93534485 255.66959381 -255.9331897 254.65168762 -255.93096924 253.60293579 C-255.88129854 238.99386477 -255.63040191 224.66174147 -252.625 210.3125 C-252.42632324 209.33764648 -252.22764648 208.36279297 -252.02294922 207.35839844 C-241.90232806 158.9765226 -219.9858123 114.98821731 -185.625 79.3125 C-184.99287598 78.65314453 -184.36075195 77.99378906 -183.70947266 77.31445312 C-174.56502521 67.82619695 -165.26765991 59.0862956 -154.625 51.3125 C-153.47394983 50.45443848 -152.32290823 49.59636549 -151.171875 48.73828125 C-142.98224019 42.70072604 -134.47961724 37.31792698 -125.625 32.3125 C-124.91778809 31.9103125 -124.21057617 31.508125 -123.48193359 31.09375 C-100.34654164 18.0683259 -75.17537591 9.31948539 -49.1875 4 C-48.46860596 3.85264404 -47.74971191 3.70528809 -47.0090332 3.5534668 C-31.36274391 0.57960912 -15.88931954 -0.06050362 0 0 Z " fill="#FC9827" transform="translate(255.625,-0.3125)"/>
<path d="M0 0 C7.88146652 6.75554273 7.88146652 6.75554273 11.59106445 10.35641479 C12.43198639 11.17139435 13.27290833 11.9863739 14.13931274 12.8260498 C15.03822235 13.70184692 15.93713196 14.57764404 16.86328125 15.47998047 C17.83810371 16.42719757 18.81298955 17.37434945 19.78793335 18.32144165 C28.67368519 26.96234603 37.50770918 35.65614784 46.32737732 44.36443901 C52.23854164 50.19920899 58.16463687 56.01693287 64.13183594 61.79443359 C69.36149122 66.85786697 74.55934396 71.95162546 79.72277737 77.08260262 C82.44570998 79.78646695 85.1806436 82.47434148 87.95425415 85.12627792 C102.06632943 98.64444286 110.48206283 110.32869335 114 130 C114.40505176 131.88286399 114.81912757 133.76381299 115.24291992 135.64254761 C119.28903593 153.58647187 120.38236243 171.27789302 120.3125 189.625 C120.31034485 190.64290619 120.3081897 191.66081238 120.30596924 192.70956421 C120.25629854 207.31863523 120.00540191 221.65075853 117 236 C116.70198486 237.46228027 116.70198486 237.46228027 116.39794922 238.95410156 C106.27732806 287.3359774 84.3608123 331.32428269 50 367 C49.36787598 367.65935547 48.73575195 368.31871094 48.08447266 368.99804688 C38.94002521 378.48630305 29.64265991 387.2262044 19 395 C17.84894983 395.85806152 16.69790823 396.71613451 15.546875 397.57421875 C7.35724019 403.61177396 -1.14538276 408.99457302 -10 414 C-10.70721191 414.4021875 -11.41442383 414.804375 -12.14306641 415.21875 C-35.27845836 428.2441741 -60.44962409 436.99301461 -86.4375 442.3125 C-87.15639404 442.45985596 -87.87528809 442.60721191 -88.6159668 442.7590332 C-91.0714498 443.22574175 -93.52895802 443.62350337 -96 444 C-97.17256348 444.17877686 -98.34512695 444.35755371 -99.55322266 444.54174805 C-110.84792172 446.12706356 -122.05016403 446.27636441 -133.44140625 446.20581055 C-136.52352059 446.18735919 -139.60533568 446.18530303 -142.6875 446.18554688 C-144.6770859 446.18063632 -146.6666698 446.17481003 -148.65625 446.16796875 C-149.56266235 446.16685593 -150.46907471 446.1657431 -151.4029541 446.16459656 C-153.12779782 446.15188082 -154.85264983 446.1164116 -156.57649231 446.05628967 C-158.96441076 445.95703801 -158.96441076 445.95703801 -161.19438171 446.18772888 C-166.87538863 446.32234418 -170.03935746 443.68440326 -174.00708008 439.90112305 C-176.29855303 437.63987077 -178.53473212 435.32879268 -180.76953125 433.01171875 C-181.97843523 431.78787197 -183.18913405 430.56579578 -184.40153503 429.34541321 C-187.57932896 426.13717785 -190.73238071 422.90567246 -193.8807373 419.6685791 C-197.08497542 416.38253926 -200.31191404 413.11896554 -203.53710938 409.85351562 C-208.74412895 404.57630199 -213.93705871 399.28569806 -219.11192322 393.97694397 C-220.40630569 392.64969156 -221.70306979 391.32476299 -223 390 C-224.06494942 388.90985344 -224.06494942 388.90985344 -225.15141296 387.79768372 C-227.10093994 385.83138455 -227.10093994 385.83138455 -229.9375 383.75 C-236.96689473 377.90992205 -240.43722925 369.06851857 -241.26769066 360.11341476 C-241.36664443 356.89889443 -241.37144836 353.69782963 -241.34057617 350.48193359 C-241.34101425 349.27103058 -241.34145233 348.06012756 -241.34190369 346.81253052 C-241.34018373 343.52381438 -241.3252395 340.23549171 -241.30418181 336.94685316 C-241.28530408 333.49824738 -241.2836559 330.04963215 -241.28010559 326.60098267 C-241.27081746 320.08470448 -241.24624799 313.56857903 -241.21605712 307.05236781 C-241.18241184 299.62787317 -241.16600177 292.20337086 -241.15097082 284.77881885 C-241.11969509 269.5191093 -241.06472406 254.25960991 -241 239 C-229.78 239 -218.56 239 -207 239 C-207 223.49 -207 207.98 -207 192 C-201.06 191.67 -195.12 191.34 -189 191 C-171.13454501 188.51055135 -155.57941698 181.16957713 -143.75 167.25 C-129.78943891 148.72973953 -129.38587603 128.99190347 -129.39249516 106.73270226 C-129.38932781 103.21596668 -129.36363186 99.69939008 -129.34051514 96.18273926 C-129.30024004 89.54986332 -129.27968223 82.91708496 -129.26654124 76.28410578 C-129.25057356 68.72151873 -129.21211798 61.1590955 -129.17194796 53.59660435 C-129.08993986 38.06445185 -129.03560485 22.5323325 -129 7 C-127.72538052 7.94204641 -126.45268215 8.88669247 -125.18078613 9.83241272 C-124.47184456 10.35817933 -123.76290298 10.88394594 -123.03247833 11.42564487 C-120.29563829 13.54559768 -117.89164265 15.90134835 -115.46875 18.37109375 C-114.98853394 18.85651138 -114.50831787 19.34192902 -114.0135498 19.84205627 C-112.50406543 21.36907032 -111.00154363 22.90268049 -109.5 24.4375 C-107.51392845 26.46051724 -105.52452218 28.48017075 -103.53125 30.49609375 C-103.05357178 30.97936127 -102.57589355 31.46262878 -102.08374023 31.96054077 C-99.31802839 34.73802949 -96.49067047 37.40302982 -93.53125 39.97265625 C-92.59962036 40.78452393 -92.59962036 40.78452393 -91.64916992 41.61279297 C-90.26994548 42.77293409 -88.83764666 43.86958669 -87.39453125 44.94921875 C-86 47 -86 47 -86.44921875 50.64453125 C-86.83842752 52.04063506 -87.25221885 53.43006749 -87.6875 54.8125 C-88.09063847 56.19302242 -88.49041114 57.57453241 -88.88671875 58.95703125 C-89.07451904 59.56522705 -89.26231934 60.17342285 -89.45581055 60.80004883 C-90.91752216 66.70919342 -91.1559169 72.56012739 -91.17700195 78.60644531 C-91.18685875 79.85431572 -91.18685875 79.85431572 -91.19691467 81.12739563 C-91.21650965 83.86097323 -91.22827856 86.59449629 -91.23828125 89.328125 C-91.24235678 90.26780876 -91.2464323 91.20749252 -91.25063133 92.17565155 C-91.27143212 97.1485115 -91.28576028 102.12134434 -91.29516602 107.09423828 C-91.30622504 112.20604401 -91.34063654 117.31741386 -91.38033772 122.4290657 C-91.40658676 126.38241335 -91.41486513 130.33565828 -91.41844749 134.28908539 C-91.42329106 136.17238055 -91.43484071 138.05567182 -91.45348549 139.93888092 C-91.57487682 153.01093102 -91.29825588 163.92688946 -82 174 C-82 174.66 -82 175.32 -82 176 C-81.4225 176.2784375 -80.845 176.556875 -80.25 176.84375 C-77.38127198 178.31795745 -74.71379195 180.04272703 -72 181.78125 C-70.06188355 182.96228971 -68.03000496 183.98499752 -66 185 C-66 202.82 -66 220.64 -66 239 C-55.11 239 -44.22 239 -33 239 C-33 221.84 -33 204.68 -33 187 C-22.11 187 -11.22 187 0 187 C0 125.29 0 63.58 0 0 Z " fill="#E97B0C" transform="translate(392,66)"/>
<path d="M0 0 C10.56 0 21.12 0 32 0 C32.01458252 2.60406738 32.02916504 5.20813477 32.04418945 7.89111328 C32.09455507 16.5006285 32.16115374 25.10996324 32.23571491 33.71930122 C32.28041812 38.93850278 32.31967448 44.15762628 32.34643555 49.37695312 C32.37246883 54.4150982 32.41287172 59.4529429 32.46318626 64.49090195 C32.47985475 66.41175471 32.49136914 68.33265943 32.49761391 70.25357437 C32.50725511 72.94687544 32.53531466 75.6394081 32.56762695 78.33251953 C32.56619186 79.12446213 32.56475677 79.91640472 32.5632782 80.73234558 C32.64545324 85.58413838 33.54713264 88.69820125 36 93 C36 93.66 36 94.32 36 95 C36.78375 95.309375 37.5675 95.61875 38.375 95.9375 C41 97 41 97 43 98 C48.24308569 98.40331428 51.56127553 97.86051133 56 95 C60.67337611 89.82139405 61.15736124 86.49194638 61.20532227 79.69482422 C61.21522186 78.83621796 61.22512146 77.97761169 61.23532104 77.09298706 C61.26698039 74.24691553 61.29171098 71.40082729 61.31640625 68.5546875 C61.33697195 66.58455972 61.35796832 64.6144364 61.37937927 62.64431763 C61.43463961 57.45265298 61.4840314 52.26094826 61.53222656 47.06921387 C61.58241269 41.77397077 61.63811381 36.47878605 61.69335938 31.18359375 C61.80098942 20.78911046 61.90191414 10.39457773 62 0 C72.56 0 83.12 0 94 0 C94.0093457 2.66465332 94.01869141 5.32930664 94.02832031 8.07470703 C94.06210432 16.88381311 94.11766127 25.69268526 94.18390274 34.50160408 C94.2233931 39.84190211 94.25557403 45.18203486 94.27099609 50.52246094 C94.28615226 55.67737215 94.32057969 60.83182901 94.36830902 65.98653793 C94.38313348 67.95204593 94.39104162 69.9176188 94.39188385 71.88318253 C94.39425203 74.63892164 94.42131959 77.39340364 94.45410156 80.14892578 C94.4490712 80.95956985 94.44404083 81.77021393 94.43885803 82.60542297 C94.53515161 87.84552909 95.54164404 90.83817165 99 95 C103.37781564 98.15609965 106.7405227 98.3255678 111.88671875 97.50390625 C116.12007279 96.49447432 118.29355704 95.12879699 120.60578918 91.43417358 C122.32605407 87.19687449 122.44047394 83.76391836 122.43237305 79.24072266 C122.4425647 78.38153229 122.45275635 77.52234192 122.46325684 76.63711548 C122.49331893 73.81269757 122.50264239 70.9886192 122.51171875 68.1640625 C122.52857046 66.19964476 122.54672137 64.23523778 122.56611633 62.27084351 C122.61356889 57.11211506 122.64340901 51.95343022 122.66955566 46.79455566 C122.69938506 41.52570996 122.74590725 36.25701438 122.79101562 30.98828125 C122.87699496 20.65891553 122.94282062 10.32956534 123 0 C133.89 0 144.78 0 156 0 C156.09062458 16.41280775 156.16416933 32.82539881 156.20724869 49.23838806 C156.22779123 56.86084003 156.25575077 64.48312442 156.30175781 72.10546875 C156.34188234 78.7564357 156.36749302 85.40728118 156.37635398 92.05836582 C156.3815259 95.57347741 156.39350321 99.08824175 156.42292023 102.60324097 C156.6306843 128.45408086 154.21913721 148.3832217 136.05078125 168.1171875 C120.10566636 183.72821427 99.32535218 186 78 186 C78 201.51 78 217.02 78 233 C67.11 233 56.22 233 45 233 C45 216.17 45 199.34 45 182 C43.02 181.67 41.04 181.34 39 181 C30.52346729 177.10913253 23.56116305 171.54975233 17 165 C16.35160156 164.36320313 15.70320313 163.72640625 15.03515625 163.0703125 C-1.04874947 146.10654323 -0.58468633 124.02036316 -0.40557575 102.22830892 C-0.3802909 98.62492895 -0.37819906 95.02153056 -0.37347412 91.41807556 C-0.36112283 84.61858373 -0.32840964 77.81935421 -0.28807616 71.01997703 C-0.24311151 63.26890702 -0.22130984 55.5178234 -0.20129442 47.76665509 C-0.15966823 31.84425969 -0.08641642 15.92222489 0 0 Z " fill="#EDF8FE" transform="translate(107,72)"/>
<path d="M0 0 C0 61.71 0 123.42 0 187 C-10.89 187 -21.78 187 -33 187 C-33 204.16 -33 221.32 -33 239 C-43.89 239 -54.78 239 -66 239 C-66.33 221.18 -66.66 203.36 -67 185 C-71.95 182.525 -71.95 182.525 -77 180 C-85.09551052 174.91677246 -89.6544263 166.0095144 -92 157 C-92.37779178 154.06570639 -92.41187658 151.18576949 -92.38818359 148.22998047 C-92.39344055 147.40419998 -92.39869751 146.57841949 -92.40411377 145.72761536 C-92.41721073 143.02394123 -92.40860761 140.32086664 -92.3984375 137.6171875 C-92.40046235 135.71542245 -92.4033772 133.81365817 -92.40713501 131.91189575 C-92.41154545 127.93272484 -92.40517297 123.95375662 -92.39111328 119.97460938 C-92.37409241 114.9148521 -92.38382565 109.85557486 -92.40183067 104.79583549 C-92.41276333 100.86803693 -92.40917793 96.94034875 -92.4014473 93.01254654 C-92.39946771 91.14933336 -92.40182425 89.28610964 -92.40888596 87.42290878 C-92.48296841 62.36950024 -86.72760694 40.46692739 -68.75 22.125 C-49.21056365 2.97457892 -27.11910964 0 0 0 Z " fill="#EDF8FE" transform="translate(392,66)"/>
<path d="M0 0 C5.28 0 10.56 0 16 0 C16.00364563 1.10167511 16.00729126 2.20335022 16.01104736 3.33840942 C16.04800645 13.72631489 16.10578927 24.11392417 16.18390274 34.50160408 C16.2233931 39.84190211 16.25557403 45.18203486 16.27099609 50.52246094 C16.28615226 55.67737215 16.32057969 60.83182901 16.36830902 65.98653793 C16.38313348 67.95204593 16.39104162 69.9176188 16.39188385 71.88318253 C16.39425203 74.63892164 16.42131959 77.39340364 16.45410156 80.14892578 C16.4490712 80.95956985 16.44404083 81.77021393 16.43885803 82.60542297 C16.53515161 87.84552909 17.54164404 90.83817165 21 95 C25.37781564 98.15609965 28.7405227 98.3255678 33.88671875 97.50390625 C38.12007279 96.49447432 40.29355704 95.12879699 42.60578918 91.43417358 C44.32605407 87.19687449 44.44047394 83.76391836 44.43237305 79.24072266 C44.4425647 78.38153229 44.45275635 77.52234192 44.46325684 76.63711548 C44.49331893 73.81269757 44.50264239 70.9886192 44.51171875 68.1640625 C44.52857046 66.19964476 44.54672137 64.23523778 44.56611633 62.27084351 C44.61356889 57.11211506 44.64340901 51.95343022 44.66955566 46.79455566 C44.69938506 41.52570996 44.74590725 36.25701438 44.79101562 30.98828125 C44.87699496 20.65891553 44.94282062 10.32956534 45 0 C55.89 0 66.78 0 78 0 C78.09062458 16.41280775 78.16416933 32.82539881 78.20724869 49.23838806 C78.22779123 56.86084003 78.25575077 64.48312442 78.30175781 72.10546875 C78.34188234 78.7564357 78.36749302 85.40728118 78.37635398 92.05836582 C78.3815259 95.57347741 78.39350321 99.08824175 78.42292023 102.60324097 C78.6306843 128.45408086 76.21913721 148.3832217 58.05078125 168.1171875 C42.05420971 183.77859278 21.68567615 185 0 185 C0 123.95 0 62.9 0 0 Z " fill="#D2EAFD" transform="translate(185,72)"/>
<path d="M0 0 C22.11 0 44.22 0 67 0 C67.12049101 30.83677207 67.12049101 30.83677207 67.1507616 46.10233307 C67.16736584 54.34822288 67.18842418 62.59402134 67.22631836 70.83984375 C67.25631319 77.36989507 67.27559683 83.89987736 67.28226548 90.42999566 C67.28616076 93.88448712 67.29525161 97.33878117 67.31719017 100.79320908 C67.34153913 104.65888796 67.34196355 108.52437747 67.34057617 112.39013672 C67.351362 113.52302628 67.36214783 114.65591583 67.3732605 115.82313538 C67.327241 127.71319195 64.58041485 136.03250192 56.40625 144.6875 C49.71912344 150.99610996 42.54403915 153.22653036 33.4375 153.5 C27.07790063 153.30806038 22.37588321 152.39696557 17 149 C15.95585937 148.36384766 15.95585937 148.36384766 14.890625 147.71484375 C6.30721708 141.92265683 2.2030582 133.92013128 0 124 C-0.39229359 119.8210184 -0.38084582 115.67674496 -0.34057617 111.48193359 C-0.34101425 110.27103058 -0.34145233 109.06012756 -0.34190369 107.81253052 C-0.34018373 104.52381438 -0.3252395 101.23549171 -0.30418181 97.94685316 C-0.28530408 94.49824738 -0.2836559 91.04963215 -0.28010559 87.60098267 C-0.27081746 81.08470448 -0.24624799 74.56857903 -0.21605712 68.05236781 C-0.17910531 59.89822254 -0.1627849 51.74405197 -0.14648438 43.58984375 C-0.11734802 29.05977714 -0.05723828 14.53004337 0 0 Z " fill="#625652" transform="translate(151,305)"/>
<path d="M0 0 C21.78 0 43.56 0 66 0 C66.20151517 31.36471685 66.20151517 31.36471685 66.24414062 44.55859375 C66.27375127 53.65069766 66.30846591 62.74256904 66.37719727 71.83447266 C66.42724123 78.45756793 66.45934017 85.08047365 66.47044247 91.70375276 C66.47692609 95.20652646 66.49201954 98.70875819 66.52865028 102.21135712 C66.56933783 106.13416733 66.56993605 110.05646117 66.56762695 113.97949219 C66.58560333 115.12389267 66.60357971 116.26829315 66.62210083 117.44737244 C66.56451634 126.53825444 64.27880387 134.99268565 58.75 142.375 C49.71044918 151.00366215 41.09198587 153.50846973 28.66015625 153.3125 C23.69728857 152.88877597 20.18369639 151.6353993 16 149 C14.95585937 148.38125 14.95585937 148.38125 13.890625 147.75 C6.57929063 142.91242538 2.18165028 135.40298598 0 127 C-0.28734198 122.88653532 -0.2524707 118.7825691 -0.22705078 114.66064453 C-0.22748886 112.8012751 -0.22748886 112.8012751 -0.22793579 110.90434265 C-0.22678395 107.51834579 -0.21677666 104.13259497 -0.20278788 100.74664164 C-0.19025695 97.20324337 -0.18910816 93.65984157 -0.18673706 90.11642456 C-0.18052922 83.41235034 -0.16412786 76.70834161 -0.14403808 70.00429618 C-0.11746981 60.94096476 -0.10670081 51.87761533 -0.09503365 42.81425476 C-0.07624673 28.54278749 -0.03639647 14.27145839 0 0 Z " fill="#605552" transform="translate(326,305)"/>
<path d="M0 0 C0 61.38 0 122.76 0 186 C-10.89 186 -21.78 186 -33 186 C-33.33 125.28 -33.66 64.56 -34 2 C-26 0 -26 0 0 0 Z " fill="#D2EAFE" transform="translate(392,66)"/>
<path d="M0 0 C10.89 0 21.78 0 33 0 C33.06784096 16.12527539 33.12305372 32.25042812 33.15543652 48.37580681 C33.17087513 55.86387127 33.19190678 63.35184046 33.22631836 70.83984375 C33.25631319 77.36989507 33.27559683 83.89987736 33.28226548 90.42999566 C33.28616076 93.88448712 33.29525161 97.33878117 33.31719017 100.79320908 C33.34153913 104.65888796 33.34196355 108.52437747 33.34057617 112.39013672 C33.351362 113.52302628 33.36214783 114.65591583 33.3732605 115.82313538 C33.327241 127.71319195 30.58041485 136.03250192 22.40625 144.6875 C15.78799651 150.93113537 9.0006564 153 0 153 C0 102.51 0 52.02 0 0 Z " fill="#4C403F" transform="translate(185,305)"/>
<path d="M0 0 C10.89 0 21.78 0 33 0 C33.11313991 16.22112936 33.20513024 32.44191871 33.25906086 48.66333389 C33.2847743 56.19627319 33.31979216 63.72894878 33.37719727 71.26171875 C33.42724396 77.83207633 33.45934081 84.4022428 33.47044247 90.97278571 C33.47692564 94.44761569 33.4920161 97.92189928 33.52865028 101.39655304 C33.56934332 105.28823097 33.56993588 109.17938851 33.56762695 113.07128906 C33.58560333 114.20633881 33.60357971 115.34138855 33.62210083 116.51083374 C33.56425075 125.57282618 31.26095723 134.01825785 25.75 141.375 C17.90071291 148.86750131 10.9815009 152 0 152 C0 101.84 0 51.68 0 0 Z " fill="#4C403E" transform="translate(359,306)"/>
<path d="M0 0 C1.10033535 0.93830477 2.19996885 1.87743262 3.29931641 2.81689453 C3.91175201 3.33978058 4.52418762 3.86266663 5.15518188 4.40139771 C7.95558207 6.82804677 10.6661316 9.34716984 13.375 11.875 C14.42362127 12.85248364 15.47312089 13.82902575 16.5234375 14.8046875 C17.03405228 15.2945665 17.54466705 15.7844455 18.070755 16.28916931 C19.98799227 18.06155789 19.98799227 18.06155789 22.26994324 19.55104065 C26.07846222 22.33667583 28.59730825 24.48091901 29.83209229 29.13891602 C30.13968909 32.95425005 30.17392102 36.7136479 30.08984375 40.53515625 C30.08828469 41.9418487 30.0898504 43.34854773 30.09437561 44.75523376 C30.09410765 47.69207376 30.06308878 50.62642202 30.00854492 53.56274414 C29.94040764 57.31151674 29.93886919 61.05666439 29.95909786 64.80588627 C29.96916062 67.70682049 29.94915004 70.6069399 29.91971016 73.50771904 C29.90823186 74.8890601 29.90467712 76.27049219 29.9094677 77.65187263 C29.91646937 89.7220629 29.91646937 89.7220629 26.09594727 94.31030273 C22.52662745 97.76027571 19.5522177 98.82753137 14.625 99.375 C10.33466046 98.93117177 7.21749953 97.84532083 4 95 C0.21290811 89.61508765 -0.57209719 84.54428713 -0.45410156 78.10546875 C-0.45468567 77.2557399 -0.45526978 76.40601105 -0.45587158 75.53053284 C-0.4531065 72.74909208 -0.42209025 69.96875127 -0.390625 67.1875 C-0.38315698 65.24837835 -0.3774667 63.30924911 -0.37347412 61.37011719 C-0.35826195 56.28679262 -0.31901843 51.2039312 -0.2746582 46.12078857 C-0.23360993 40.92564152 -0.21544274 35.73041902 -0.1953125 30.53515625 C-0.15251972 20.35656827 -0.08432222 10.17832277 0 0 Z " fill="#EA7B0C" transform="translate(139,72)"/>
<path d="M0 0 C0.47266328 0.41265515 0.94532656 0.82531031 1.43231297 1.25047016 C2.05660663 1.79142417 2.68090029 2.33237818 3.32411194 2.88972473 C4.24966936 3.69433246 4.24966936 3.69433246 5.1939249 4.51519489 C7.48248278 6.39665731 9.93778991 7.83628036 12.49609375 9.32421875 C20.77455789 15.03187192 27.59502925 20.99119919 29.63568115 31.17114258 C30.76834848 40.23813744 30.79085256 49.31895201 30.625 58.4375 C30.61477184 59.11033901 30.60454369 59.78317802 30.59400558 60.4764061 C30.51858033 65.04904629 30.36571556 69.61447069 30.1640625 74.18359375 C30.11477097 75.36838318 30.06547943 76.55317261 30.01469421 77.77386475 C29.60650578 84.26824026 28.87589689 88.70737684 25 94 C21.73575204 96.63650797 18.09054429 97.79552295 14 98.5625 C8.86528154 97.59974029 4.61564296 95.08749432 1.40678406 90.94148254 C-0.44813537 87.06298172 -0.39694634 83.56085208 -0.34057617 79.35424805 C-0.34101425 78.4952037 -0.34145233 77.63615936 -0.34190369 76.75108337 C-0.33981921 73.9210613 -0.31650428 71.09163691 -0.29296875 68.26171875 C-0.28737158 66.29588647 -0.28310205 64.33005 -0.28010559 62.36421204 C-0.26866635 57.19709667 -0.23920697 52.03023539 -0.20599365 46.86322021 C-0.17527299 41.5878849 -0.16159598 36.31250841 -0.14648438 31.03710938 C-0.11433649 20.69129479 -0.06315116 10.34566855 0 0 Z " fill="#E97B0C" transform="translate(201,73)"/>
<path d="M0 0 C32.67 0.495 32.67 0.495 66 1 C66 1.33 66 1.66 66 2 C55.11 2 44.22 2 33 2 C33 19.16 33 36.32 33 54 C22.11 54 11.22 54 0 54 C0 36.18 0 18.36 0 0 Z " fill="#FEE680" transform="translate(326,251)"/>
<path d="M0 0 C10.89 0 21.78 0 33 0 C33 17.16 33 34.32 33 52 C22.11 52 11.22 52 0 52 C0 34.84 0 17.68 0 0 Z " fill="#FBBE2C" transform="translate(359,253)"/>
<path d="M0 0 C2.97 0.33 5.94 0.66 9 1 C10.62433737 1.09601114 12.25039755 1.17049781 13.87719727 1.20532227 C14.71738907 1.22526749 15.55758087 1.24521271 16.42323303 1.26576233 C17.29548019 1.28247482 18.16772736 1.29918732 19.06640625 1.31640625 C19.98590561 1.33718735 20.90540497 1.35796844 21.85276794 1.37937927 C24.75594469 1.44414557 27.65920262 1.50341637 30.5625 1.5625 C32.54492987 1.60575478 34.52735189 1.64937115 36.50976562 1.69335938 C41.33976307 1.79975085 46.16984119 1.9012179 51 2 C51 2.33 51 2.66 51 3 C45.06 3 39.12 3 33 3 C33 18.51 33 34.02 33 50 C22.11 50 11.22 50 0 50 C0 33.5 0 17 0 0 Z " fill="#FEE67F" transform="translate(152,255)"/>
<path d="M0 0 C0 16.5 0 33 0 50 C-10.89 50 -21.78 50 -33 50 C-33 34.49 -33 18.98 -33 3 C-27.06 2.67 -21.12 2.34 -15 2 C-10.56821589 1.27314784 -10.56821589 1.27314784 -6.1640625 0.40234375 C-4 0 -4 0 0 0 Z " fill="#FABE2C" transform="translate(218,255)"/>
<path d="M0 0 C3.65938172 1.43164111 7.23988068 2.98934296 10.8125 4.625 C12.27623047 5.29402344 12.27623047 5.29402344 13.76953125 5.9765625 C14.50558594 6.31429687 15.24164063 6.65203125 16 7 C16 9.97 16 12.94 16 16 C10.35573231 11.31645873 4.9941954 6.3792354 0 1 C0 0.67 0 0.34 0 0 Z " fill="#EA7D0F" transform="translate(135,247)"/>
</svg>
