<?xml version="1.0" encoding="UTF-8"?>
<svg version="1.1" xmlns="http://www.w3.org/2000/svg" width="512" height="512">
<path d="M0 0 C0.99 -0.03287109 0.99 -0.03287109 2 -0.06640625 C5.30817683 0.97386029 6.27847614 2.59172874 8 5.5625 C8.46825412 8.68649661 8.37926882 11.7253155 8.25 14.875 C8.23195313 15.71095703 8.21390625 16.54691406 8.1953125 17.40820312 C8.14841126 19.46013228 8.07667411 21.51146756 8 23.5625 C9.03898437 23.53027344 10.07796875 23.49804688 11.1484375 23.46484375 C25.93456175 23.83974548 39.9519679 33.41070165 50 43.5625 C50.69738281 44.22636719 51.39476562 44.89023438 52.11328125 45.57421875 C65.45370426 59.1736791 69.27236989 77.19611244 70 95.5625 C70.62648437 95.61148438 71.25296875 95.66046875 71.8984375 95.7109375 C72.71570313 95.78570312 73.53296875 95.86046875 74.375 95.9375 C75.18710938 96.00710937 75.99921875 96.07671875 76.8359375 96.1484375 C79 96.5625 79 96.5625 81 98.5625 C81.07347656 96.86480469 81.07347656 96.86480469 81.1484375 95.1328125 C81.22346514 93.65101661 81.29901297 92.169247 81.375 90.6875 C81.4059375 89.94113281 81.436875 89.19476563 81.46875 88.42578125 C81.7734375 82.7890625 81.7734375 82.7890625 84 80.5625 C86.44432068 80.29507446 86.44432068 80.29507446 89.56030273 80.27197266 C90.72589218 80.25921295 91.89148163 80.24645325 93.09239197 80.23330688 C94.35998856 80.23108124 95.62758514 80.22885559 96.93359375 80.2265625 C98.23643814 80.2199057 99.53928253 80.2132489 100.88160706 80.20639038 C103.64823712 80.19439578 106.41474224 80.19071106 109.18139648 80.19189453 C112.69830054 80.19209623 116.21438281 80.16496167 119.73109341 80.13035011 C123.11110261 80.10250122 126.49097172 80.10392452 129.87109375 80.1015625 C131.12047226 80.08719147 132.36985077 80.07282043 133.65708923 80.05801392 C144.91864211 80.11605214 153.80880166 82.43893369 162.00390625 90.37109375 C169.82950219 98.96240357 175.32536408 109.86881079 176 121.5625 C172.7 121.5625 169.4 121.5625 166 121.5625 C165.91226318 122.33867676 165.82452637 123.11485352 165.73413086 123.91455078 C164.75096944 128.79995085 163.01839416 133.27817621 161.25390625 137.9296875 C160.88273178 138.92324249 160.51155731 139.91679749 160.12913513 140.94046021 C158.94538106 144.10808819 157.75465597 147.27302541 156.5625 150.4375 C155.37429126 153.59496766 154.1877747 156.753019 153.00657654 159.91311646 C152.27285808 161.87584783 151.53516089 163.83709798 150.79286194 165.79660034 C144.85240908 181.67988406 143.04023597 198.61752977 150 214.5625 C156.72222534 229.20803993 166.55526847 237.9343364 181.1640625 244.51953125 C189.05453009 247.42139743 196.14274336 247.88203604 204.49609375 247.8984375 C205.68421158 247.9050943 206.87232941 247.9117511 208.09645081 247.91860962 C210.60017354 247.92870001 213.10392297 247.93342776 215.60766602 247.93310547 C219.42183966 247.93748203 223.23485854 247.97385199 227.04882812 248.01171875 C229.4895794 248.01758707 231.93033614 248.02155636 234.37109375 248.0234375 C235.50260361 248.03780853 236.63411346 248.05217957 237.7999115 248.06698608 C245.37907551 248.02358871 251.96985201 247.0877081 257.84397888 241.94955444 C269.91183513 229.53855863 269.10929585 203.7215196 269.0559082 187.6965332 C268.46847696 154.767036 260.63069364 122.69933547 250.98364258 91.39794922 C250.61134521 90.18896973 250.23904785 88.97999023 249.85546875 87.734375 C249.52184326 86.6628418 249.18821777 85.59130859 248.84448242 84.48730469 C248.0837965 81.85272321 247.51915351 79.25241274 247 76.5625 C246.41197601 76.6774733 245.82395203 76.79244659 245.21810913 76.91090393 C239.08836659 78.10730394 232.95594482 79.28914975 226.82177734 80.46264648 C224.5339506 80.90228907 222.24682879 81.34561692 219.96044922 81.79272461 C216.67073848 82.4353691 213.37870636 83.06464471 210.0859375 83.69140625 C209.06696381 83.89343155 208.04799011 84.09545685 206.99813843 84.30360413 C197.80820311 86.0282526 197.80820311 86.0282526 193 84.5625 C190.5625 82.4375 190.5625 82.4375 189 79.5625 C189.05899212 76.14095694 189.12714443 73.69974892 191.25170898 70.93164062 C193.44742849 69.21210495 195.17908157 68.82630845 197.91015625 68.28125 C198.89242188 68.08039795 199.8746875 67.8795459 200.88671875 67.67260742 C202.45873047 67.37060425 202.45873047 67.37060425 204.0625 67.0625 C205.12984375 66.84891846 206.1971875 66.63533691 207.296875 66.4152832 C216.49828503 64.59794976 225.73249527 63.00177157 235 61.5625 C235.74243499 56.07411984 235.7483177 51.12977915 232.57714844 46.47314453 C228.96454196 42.14100238 224.97710118 38.17181368 220.8347168 34.34741211 C219 32.5625 219 32.5625 217.62817383 30.76391602 C215.3553527 27.87505302 213.92017747 26.70014405 210.21069336 26.14526367 C206.80836872 26.07882304 203.46020282 26.18781437 200.0625 26.375 C183.96875717 27.10285772 183.96875717 27.10285772 178.08203125 21.8515625 C176.53593407 18.58075764 176.60274716 15.47677859 176.6875 11.9375 C176.68266602 10.9165625 176.68266602 10.9165625 176.67773438 9.875 C176.73257212 4.82992788 176.73257212 4.82992788 179 2.5625 C181.81015867 2.32569418 184.51843746 2.21014513 187.33203125 2.19140625 C188.16079269 2.18237778 188.98955414 2.1733493 189.84342957 2.16404724 C191.59944029 2.14952503 193.35550537 2.14065312 195.11157227 2.13696289 C197.79211434 2.12509029 200.47033645 2.07594838 203.15039062 2.02539062 C204.8567596 2.01592365 206.56314272 2.00868993 208.26953125 2.00390625 C209.06865433 1.98437393 209.8677774 1.96484161 210.69111633 1.94471741 C214.89449081 1.97860133 216.49373725 2.1501798 219.86425781 4.89526367 C220.56905273 5.77545166 221.27384766 6.65563965 222 7.5625 C222.51941162 8.12678711 223.03882324 8.69107422 223.57397461 9.27246094 C225.03394908 10.94790306 226.49004546 12.62621892 227.9375 14.3125 C228.73353638 15.23784546 228.73353638 15.23784546 229.5456543 16.18188477 C232.36401978 19.50054155 234.96939469 22.82069139 237.3125 26.5 C239.16808213 29.37507347 241.07227279 32.09596443 243.3125 34.6875 C243.80363281 35.26757812 244.29476563 35.84765625 244.80078125 36.4453125 C250.87891624 39.53296189 260.89194575 35.47996261 267.16796875 33.83984375 C269.29882232 33.2962012 271.42968187 32.7525821 273.56054688 32.20898438 C276.88552408 31.35280828 280.20986626 30.49421548 283.53393555 29.63452148 C286.76462967 28.80121602 289.99742704 27.97648571 293.23046875 27.15234375 C294.22120895 26.89299545 295.21194916 26.63364716 296.23271179 26.36643982 C305.68074729 23.96235915 305.68074729 23.96235915 310 24.5625 C311.99005815 26.10309468 312.88664719 27.00636604 313.39440918 29.49755859 C313.40282837 30.22797363 313.41124756 30.95838867 313.41992188 31.7109375 C313.43583374 32.54189941 313.45174561 33.37286133 313.46813965 34.22900391 C313.46844177 35.56970947 313.46844177 35.56970947 313.46875 36.9375 C313.47636353 37.85837402 313.48397705 38.77924805 313.49182129 39.72802734 C313.50262557 41.6747771 313.50547406 43.62158483 313.50097656 45.56835938 C313.5000035 48.55175999 313.54163508 51.53259545 313.5859375 54.515625 C313.59114383 56.40624462 313.5938327 58.29687321 313.59375 60.1875 C313.61014526 61.08130371 313.62654053 61.97510742 313.64343262 62.89599609 C313.61740272 65.22043169 313.53243776 67.30014994 313 69.5625 C310.30629893 72.18498009 308.56874555 72.50077122 304.86206055 72.90307617 C303.71519775 72.88736572 302.56833496 72.87165527 301.38671875 72.85546875 C300.13955078 72.84580078 298.89238281 72.83613281 297.60742188 72.82617188 C296.31384766 72.80103516 295.02027344 72.77589844 293.6875 72.75 C291.71813477 72.72969727 291.71813477 72.72969727 289.70898438 72.70898438 C286.47223923 72.67367443 283.23632895 72.6243528 280 72.5625 C288.04070352 86.97085254 296.12983193 101.34814652 304.33837891 115.66162109 C306.54494217 119.51386687 308.74609515 123.36919458 310.94398499 127.22639465 C312.6666485 130.24834338 314.39507787 133.26667175 316.13696289 136.27758789 C319.23969742 141.65090256 322.27803075 147.03148066 325.078125 152.5703125 C328.86340054 161.0276093 328.86340054 161.0276093 335.625 166.64453125 C338.33607802 166.70463337 338.33607802 166.70463337 341.046875 166.109375 C355.61131316 163.41225682 372.95625099 171.5582479 384.8359375 179.4453125 C393.46151985 186.00075508 401.69491752 195.02981956 405 205.5625 C404.5 209.0625 404.5 209.0625 403 211.5625 C400.06419434 213.51970377 399.10177164 213.86445175 395.76953125 214.1953125 C394.96708984 214.27910156 394.16464844 214.36289062 393.33789062 214.44921875 C392.50451172 214.52785156 391.67113281 214.60648438 390.8125 214.6875 C389.96751953 214.77386719 389.12253906 214.86023438 388.25195312 214.94921875 C386.16871077 215.1610739 384.08443958 215.36276777 382 215.5625 C382.75023437 215.96339844 383.50046875 216.36429688 384.2734375 216.77734375 C401.95079092 226.59562191 413.78386519 240.2922768 419.64453125 259.7578125 C421.16959668 265.55404662 421.46290804 271.02878361 421.375 277 C421.36412354 278.0098999 421.35324707 279.0197998 421.34204102 280.06030273 C420.96788277 297.55820118 414.39970525 313.04690965 402 325.5625 C386.76038983 338.90243577 369.58466826 345.37582062 349.3359375 344.3828125 C330.22555984 342.41142617 314.5583131 334.21386528 302 319.5625 C291.70700621 305.7831696 287.47376695 291.57736858 288 274.5625 C287.47792969 274.82804687 286.95585937 275.09359375 286.41796875 275.3671875 C285.68191406 275.72039062 284.94585937 276.07359375 284.1875 276.4375 C283.47980469 276.78554688 282.77210938 277.13359375 282.04296875 277.4921875 C271.62672193 281.15592515 260.83931282 280.83755008 249.95239258 280.78955078 C248.14783739 280.78898574 246.34328173 280.78930504 244.53872681 280.79043579 C239.66965787 280.79100667 234.80068865 280.77929547 229.93164277 280.76528788 C224.83209385 280.75273613 219.73254233 280.75160653 214.63298035 280.74923706 C204.98955688 280.74303531 195.34617907 280.72664222 185.70277566 280.70653808 C174.71845543 280.68413837 163.73413296 280.67317543 152.74979556 280.66314721 C130.16650511 280.64227479 107.58325512 280.6071243 85 280.5625 C84.93918747 281.38370331 84.87837494 282.20490662 84.8157196 283.05099487 C84.7317543 284.12970856 84.647789 285.20842224 84.5612793 286.31982422 C84.47984177 287.38852753 84.39840424 288.45723083 84.3144989 289.55831909 C82.57714085 306.15404604 71.60649286 320.20490898 59.375 330.75 C51.06709074 337.13970245 40.47181026 342.34484764 30 343.5625 C28.95585938 343.69398438 27.91171875 343.82546875 26.8359375 343.9609375 C6.43436071 345.99657155 -11.45727663 340.1575791 -27.3125 327.25 C-38.05821872 317.25082595 -45.83179203 303.09329727 -48 288.5625 C-48.05683734 285.89437601 -48.01948027 283.23163918 -48 280.5625 C-49.02883301 280.57821045 -50.05766602 280.5939209 -51.11767578 280.61010742 C-54.95304463 280.66461334 -58.78837957 280.69892477 -62.62402344 280.72729492 C-64.28065763 280.74233465 -65.93725231 280.76277177 -67.59375 280.78881836 C-69.9818703 280.82541515 -72.36946188 280.84227439 -74.7578125 280.85546875 C-75.49242706 280.87095261 -76.22704163 280.88643646 -76.98391724 280.90238953 C-81.7424556 280.90392928 -84.98498519 280.13038178 -89 277.5625 C-91.57150166 273.70524751 -91.32376713 270.48020505 -91.3359375 266.00390625 C-91.3425943 265.14554672 -91.3492511 264.28718719 -91.35610962 263.40281677 C-91.36625015 261.57447445 -91.37092621 259.74609502 -91.37060547 257.91772461 C-91.37489171 255.19381948 -91.41094558 252.47165539 -91.44921875 249.74804688 C-91.65207948 218.3228639 -81.25195242 187.14829858 -60 163.5625 C-59.30148926 163.03156738 -58.60297852 162.50063477 -57.88330078 161.95361328 C-53.91395062 158.81898501 -52.21633563 156.7207955 -51.26928711 151.65014648 C-50.89445706 146.954653 -50.9407353 142.26886948 -51 137.5625 C-50.99189864 135.91273869 -50.9802127 134.26299087 -50.96484375 132.61328125 C-50.93515743 128.59532018 -50.95422781 124.58028114 -51 120.5625 C-51.73114014 120.57297363 -52.46228027 120.58344727 -53.21557617 120.59423828 C-56.53951559 120.63590289 -59.86339995 120.66185956 -63.1875 120.6875 C-64.33798828 120.70425781 -65.48847656 120.72101563 -66.67382812 120.73828125 C-67.78564453 120.74472656 -68.89746094 120.75117188 -70.04296875 120.7578125 C-71.57473755 120.77352295 -71.57473755 120.77352295 -73.13745117 120.78955078 C-76.15746305 120.55001039 -78.29425926 119.90415502 -81 118.5625 C-83.45267669 115.31196463 -83.26819498 112.02900481 -83.25 108.0625 C-83.25773437 106.37640625 -83.25773437 106.37640625 -83.265625 104.65625 C-83.01018707 101.68114938 -82.65125214 100.01644415 -81 97.5625 C-77.26754761 95.48891534 -74.19723369 95.49293259 -70 95.5625 C-69.97421875 94.48613281 -69.9484375 93.40976563 -69.921875 92.30078125 C-69.25183525 72.75720585 -62.89191579 55.77899326 -49 41.5625 C-36.97827115 31.02267402 -24.35746711 25.87565915 -9 22.5625 C-8.97421875 21.30953125 -8.9484375 20.0565625 -8.921875 18.765625 C-8.86558831 17.11454877 -8.8082411 15.46350845 -8.75 13.8125 C-8.73582031 12.9875 -8.72164063 12.1625 -8.70703125 11.3125 C-8.46117063 5.2151567 -8.46117063 5.2151567 -6.203125 2.01953125 C-3.89568725 0.49351302 -2.73789754 -0.00534746 0 0 Z M81 116.5625 C80.01 118.0475 80.01 118.0475 79 119.5625 C79.99 119.5625 80.98 119.5625 82 119.5625 C81.67 118.5725 81.34 117.5825 81 116.5625 Z M-35 120.5625 C-35 127.4925 -35 134.4225 -35 141.5625 C-32.958125 140.5415625 -32.958125 140.5415625 -30.875 139.5 C-29.95847656 139.04496094 -29.04195312 138.58992188 -28.09765625 138.12109375 C-25.96997858 137.05054723 -23.85320868 135.95812858 -21.74609375 134.84765625 C-9.04043998 128.24187266 3.92311137 124.2303849 18 121.5625 C18 121.2325 18 120.9025 18 120.5625 C0.51 120.5625 -16.98 120.5625 -35 120.5625 Z " fill="#7C9CE4" transform="translate(91,83.4375)"/>
<path d="M0 0 C0.82876144 -0.00902847 1.65752289 -0.01805695 2.51139832 -0.02735901 C4.26740904 -0.04188122 6.02347412 -0.05075313 7.77954102 -0.05444336 C10.46008309 -0.06631596 13.1383052 -0.11545787 15.81835938 -0.16601562 C17.52472835 -0.1754826 19.23111147 -0.18271632 20.9375 -0.1875 C21.73662308 -0.20703232 22.53574615 -0.22656464 23.35908508 -0.24668884 C27.56245956 -0.21280492 29.161706 -0.04122645 32.53222656 2.70385742 C33.23702148 3.58404541 33.94181641 4.4642334 34.66796875 5.37109375 C35.18738037 5.93538086 35.70679199 6.49966797 36.24194336 7.08105469 C37.70191783 8.75649681 39.15801421 10.43481267 40.60546875 12.12109375 C41.13615967 12.73799072 41.66685059 13.3548877 42.21362305 13.99047852 C45.03198853 17.3091353 47.63736344 20.62928514 49.98046875 24.30859375 C51.83605088 27.18366722 53.74024154 29.90455818 55.98046875 32.49609375 C56.71716797 33.36621094 56.71716797 33.36621094 57.46875 34.25390625 C63.54688499 37.34155564 73.5599145 33.28855636 79.8359375 31.6484375 C81.96679107 31.10479495 84.09765062 30.56117585 86.22851562 30.01757812 C89.55349283 29.16140203 92.87783501 28.30280923 96.2019043 27.44311523 C99.43259842 26.60980977 102.66539579 25.78507946 105.8984375 24.9609375 C106.8891777 24.7015892 107.87991791 24.44224091 108.90068054 24.17503357 C118.34871604 21.7709529 118.34871604 21.7709529 122.66796875 22.37109375 C124.6580269 23.91168843 125.55461594 24.81495979 126.06237793 27.30615234 C126.07500671 28.4017749 126.07500671 28.4017749 126.08789062 29.51953125 C126.10380249 30.35049316 126.11971436 31.18145508 126.1361084 32.03759766 C126.13630981 32.93140137 126.13651123 33.82520508 126.13671875 34.74609375 C126.14433228 35.66696777 126.1519458 36.5878418 126.15979004 37.53662109 C126.17059432 39.48337085 126.17344281 41.43017858 126.16894531 43.37695312 C126.16797225 46.36035374 126.20960383 49.3411892 126.25390625 52.32421875 C126.25911258 54.21483837 126.26180145 56.10546696 126.26171875 57.99609375 C126.27811401 58.88989746 126.29450928 59.78370117 126.31140137 60.70458984 C126.28537147 63.02902544 126.20040651 65.10874369 125.66796875 67.37109375 C122.97426768 69.99357384 121.2367143 70.30936497 117.5300293 70.71166992 C116.3831665 70.69595947 115.23630371 70.68024902 114.0546875 70.6640625 C112.80751953 70.65439453 111.56035156 70.64472656 110.27539062 70.63476562 C108.98181641 70.60962891 107.68824219 70.58449219 106.35546875 70.55859375 C104.38610352 70.53829102 104.38610352 70.53829102 102.37695312 70.51757812 C99.14020798 70.48226818 95.9042977 70.43294655 92.66796875 70.37109375 C100.70867227 84.77944629 108.79780068 99.15674027 117.00634766 113.47021484 C119.21291092 117.32246062 121.4140639 121.17778833 123.61195374 125.0349884 C125.33461725 128.05693713 127.06304662 131.0752655 128.80493164 134.08618164 C131.90766617 139.45949631 134.9459995 144.84007441 137.74609375 150.37890625 C141.53136929 158.83620305 141.53136929 158.83620305 148.29296875 164.453125 C151.00404677 164.51322712 151.00404677 164.51322712 153.71484375 163.91796875 C168.27928191 161.22085057 185.62421974 169.36684165 197.50390625 177.25390625 C206.1294886 183.80934883 214.36288627 192.83841331 217.66796875 203.37109375 C217.16796875 206.87109375 217.16796875 206.87109375 215.66796875 209.37109375 C212.73216309 211.32829752 211.76974039 211.6730455 208.4375 212.00390625 C207.63505859 212.08769531 206.83261719 212.17148437 206.00585938 212.2578125 C205.17248047 212.33644531 204.33910156 212.41507813 203.48046875 212.49609375 C202.63548828 212.58246094 201.79050781 212.66882813 200.91992188 212.7578125 C198.83667952 212.96966765 196.75240833 213.17136152 194.66796875 213.37109375 C195.41820312 213.77199219 196.1684375 214.17289063 196.94140625 214.5859375 C214.61875967 224.40421566 226.45183394 238.10087055 232.3125 257.56640625 C233.83756543 263.36264037 234.13087679 268.83737736 234.04296875 274.80859375 C234.02665405 276.3234436 234.02665405 276.3234436 234.01000977 277.86889648 C233.63585152 295.36679493 227.067674 310.8555034 214.66796875 323.37109375 C199.42835858 336.71102952 182.25263701 343.18441437 162.00390625 342.19140625 C142.89352859 340.22001992 127.22628185 332.02245903 114.66796875 317.37109375 C104.37497496 303.59176335 100.1417357 289.38596233 100.66796875 272.37109375 C100.14589844 272.63664062 99.62382812 272.9021875 99.0859375 273.17578125 C97.98185547 273.70558594 97.98185547 273.70558594 96.85546875 274.24609375 C96.14777344 274.59414063 95.44007813 274.9421875 94.7109375 275.30078125 C85.30713066 278.60841036 75.6941923 278.6522119 65.83325195 278.59814453 C64.37351998 278.59757914 62.91378743 278.59789947 61.45405579 278.59902954 C57.52502948 278.59959906 53.59612741 278.58791038 49.66712976 278.57388163 C45.54853475 278.56130676 41.42993632 278.56019847 37.31132507 278.55783081 C29.52723458 278.55163578 21.74320084 278.53525194 13.95913523 278.51513183 C5.09085856 278.49271102 -3.77742094 278.48176391 -12.64571893 278.47174096 C-30.87452833 278.45088377 -49.10326002 278.41423249 -67.33203125 278.37109375 C-67.82703125 261.04609375 -67.82703125 261.04609375 -68.33203125 243.37109375 C-62.72203125 244.36109375 -57.11203125 245.35109375 -51.33203125 246.37109375 C-47.39116904 246.60131377 -43.63152376 246.75234378 -39.70703125 246.69921875 C-38.70921631 246.69734558 -37.71140137 246.69547241 -36.68334961 246.69354248 C-34.60999115 246.68691638 -32.53664308 246.67319695 -30.46337891 246.65234375 C-27.3087995 246.6208619 -24.15472195 246.61132257 -21 246.60546875 C-18.96483771 246.59630748 -16.92968044 246.58593452 -14.89453125 246.57421875 C-13.50210205 246.56784393 -13.50210205 246.56784393 -12.08154297 246.56134033 C-7.99842354 246.51703533 -4.01053013 246.37721741 0.04101562 245.85571289 C5.77877006 245.15310975 11.49128627 245.32349714 17.26171875 245.4140625 C19.6979086 245.43644255 22.13410709 245.45789884 24.5703125 245.47851562 C28.37540318 245.51561808 32.18004723 245.55878149 35.98486328 245.61791992 C39.68138012 245.67258235 43.37739778 245.70154286 47.07421875 245.7265625 C48.20259155 245.7503447 49.33096436 245.77412689 50.49353027 245.79862976 C58.08743298 245.82364821 64.62738248 244.9060718 70.51208496 239.75773621 C82.58032704 227.348478 81.77725997 201.52872163 81.72387695 185.50512695 C81.13644571 152.57562975 73.29866239 120.50792922 63.65161133 89.20654297 C63.27931396 87.99756348 62.9070166 86.78858398 62.5234375 85.54296875 C62.18981201 84.47143555 61.85618652 83.39990234 61.51245117 82.29589844 C60.75176525 79.66131696 60.18712226 77.06100649 59.66796875 74.37109375 C59.07994476 74.48606705 58.49192078 74.60104034 57.88607788 74.71949768 C51.75633534 75.91589769 45.62391357 77.0977435 39.48974609 78.27124023 C37.20191935 78.71088282 34.91479754 79.15421067 32.62841797 79.60131836 C29.33870723 80.24396285 26.04667511 80.87323846 22.75390625 81.5 C21.73493256 81.7020253 20.71595886 81.9040506 19.66610718 82.11219788 C10.47617186 83.83684635 10.47617186 83.83684635 5.66796875 82.37109375 C3.23046875 80.24609375 3.23046875 80.24609375 1.66796875 77.37109375 C1.72696087 73.94955069 1.79511318 71.50834267 3.91967773 68.74023438 C6.11539724 67.0206987 7.84705032 66.6349022 10.578125 66.08984375 C11.56039062 65.8889917 12.54265625 65.68813965 13.5546875 65.48120117 C14.60269531 65.27986572 15.65070313 65.07853027 16.73046875 64.87109375 C17.7978125 64.65751221 18.86515625 64.44393066 19.96484375 64.22387695 C29.16625378 62.40654351 38.40046402 60.81036532 47.66796875 59.37109375 C48.41040374 53.88271359 48.41628645 48.9383729 45.24511719 44.28173828 C41.63251071 39.94959613 37.64506993 35.98040743 33.50268555 32.15600586 C31.66796875 30.37109375 31.66796875 30.37109375 30.29614258 28.57250977 C28.02332145 25.68364677 26.58814622 24.5087378 22.87866211 23.95385742 C19.47633747 23.88741679 16.12817157 23.99640812 12.73046875 24.18359375 C-3.36327408 24.91145147 -3.36327408 24.91145147 -9.25 19.66015625 C-10.79609718 16.38935139 -10.72928409 13.28537234 -10.64453125 9.74609375 C-10.64775391 9.06546875 -10.65097656 8.38484375 -10.65429688 7.68359375 C-10.56732542 -0.31778055 -6.95371187 0.04631256 0 0 Z " fill="#6B96D5" transform="translate(278.33203125,85.62890625)"/>
<path d="M0 0 C5.28 0 10.56 0 16 0 C16.495 10.395 16.495 10.395 17 21 C19.64 19.47375 22.28 17.9475 25 16.375 C49.17806979 2.80119265 72.67891254 0.37571409 99.90393066 0.26177979 C103.64572776 0.24193458 107.38727814 0.19999992 111.12890625 0.16015625 C118.41920322 0.08566273 125.70939415 0.03488835 133 0 C133 0.66 133 1.32 133 2 C140.59 2 148.18 2 156 2 C153.20271056 10.70267826 150.28971305 19.3218197 147.03515625 27.86328125 C146.64065781 28.90112259 146.64065781 28.90112259 146.2381897 29.95993042 C144.91312422 33.44088148 143.57755441 36.91732361 142.22753906 40.38867188 C137.87895351 51.6868218 134.79386122 62.87308557 134 75 C130.6831258 73.92887214 127.40801066 72.79035323 124.16015625 71.52734375 C123.48919922 71.26759766 122.81824219 71.00785156 122.12695312 70.74023438 C120.75271677 70.20588136 119.38029921 69.66682661 118.00976562 69.12304688 C117.00139648 68.73536133 117.00139648 68.73536133 115.97265625 68.33984375 C115.37718994 68.10644287 114.78172363 67.87304199 114.16821289 67.63256836 C107.13924552 65.58189226 99.97773356 65.86900494 92.72265625 65.90234375 C91.5561705 65.9037587 90.38968475 65.90517365 89.18785095 65.90663147 C85.47937403 65.91220794 81.77095853 65.92475616 78.0625 65.9375 C75.5410165 65.94251804 73.01953205 65.94708041 70.49804688 65.95117188 C64.33201046 65.96216967 58.16600962 65.97888435 52 66 C52.92288818 66.24814453 53.84577637 66.49628906 54.79663086 66.75195312 C76.17935027 72.65140637 92.67064943 84.2689491 104.0078125 103.72998047 C113.87834818 121.61061129 113.42632536 140.07858096 113 160 C111.02 160 109.04 160 107 160 C106.938125 160.9075 106.87625 161.815 106.8125 162.75 C105.55599331 171.33612906 101.6679095 180.3085626 95 186 C84.08487215 193.95012297 74.34611417 196.46113992 61 195 C51.24005331 192.70746976 43.08420686 186.83320838 37.33984375 178.62890625 C34.04215121 172.92764773 31.87734658 167.64558542 32 161 C31.21152679 161.00666183 30.42305359 161.01332367 29.61068726 161.02018738 C22.1662059 161.08039374 14.72184324 161.12602261 7.27718163 161.15543652 C3.450144 161.17106708 -0.37669179 161.19225718 -4.20361328 161.22631836 C-7.8994583 161.25900562 -11.59510965 161.27687263 -15.2910881 161.28463173 C-16.69844993 161.29015851 -18.10580161 161.30095101 -19.5130806 161.31719017 C-21.48989706 161.33908635 -23.46690996 161.34022644 -25.44384766 161.34057617 C-27.12929184 161.35056892 -27.12929184 161.35056892 -28.8487854 161.36076355 C-32.50299172 160.94241551 -34.87477012 159.91780499 -38 158 C-40.57150166 154.14274751 -40.32376713 150.91770505 -40.3359375 146.44140625 C-40.3425943 145.58304672 -40.3492511 144.72468719 -40.35610962 143.84031677 C-40.36625015 142.01197445 -40.37092621 140.18359502 -40.37060547 138.35522461 C-40.37489171 135.63131948 -40.41094558 132.90915539 -40.44921875 130.18554688 C-40.65199597 98.77330133 -30.25965835 67.56897367 -9 44 C-7.95223389 43.21230225 -7.95223389 43.21230225 -6.88330078 42.40869141 C-3.03298772 39.39208391 -0.91311468 36.88711247 -0.26928711 31.99389648 C0.10619847 27.16305086 0.05920254 22.34145222 0 17.5 C0.00810085 15.80206222 0.01978631 14.10413754 0.03515625 12.40625 C0.07152516 8.26827575 0.0340771 4.14036742 0 0 Z " fill="#6B97D6" transform="translate(40,203)"/>
<path d="M0 0 C0.82876144 -0.00902847 1.65752289 -0.01805695 2.51139832 -0.02735901 C4.26740904 -0.04188122 6.02347412 -0.05075313 7.77954102 -0.05444336 C10.46008309 -0.06631596 13.1383052 -0.11545787 15.81835938 -0.16601562 C17.52472835 -0.1754826 19.23111147 -0.18271632 20.9375 -0.1875 C21.73662308 -0.20703232 22.53574615 -0.22656464 23.35908508 -0.24668884 C27.56245956 -0.21280492 29.161706 -0.04122645 32.53222656 2.70385742 C33.23702148 3.58404541 33.94181641 4.4642334 34.66796875 5.37109375 C35.18738037 5.93538086 35.70679199 6.49966797 36.24194336 7.08105469 C37.70191783 8.75649681 39.15801421 10.43481267 40.60546875 12.12109375 C41.13615967 12.73799072 41.66685059 13.3548877 42.21362305 13.99047852 C45.03198853 17.3091353 47.63736344 20.62928514 49.98046875 24.30859375 C51.83605088 27.18366722 53.74024154 29.90455818 55.98046875 32.49609375 C56.71716797 33.36621094 56.71716797 33.36621094 57.46875 34.25390625 C63.54688499 37.34155564 73.5599145 33.28855636 79.8359375 31.6484375 C81.96679107 31.10479495 84.09765062 30.56117585 86.22851562 30.01757812 C89.55349283 29.16140203 92.87783501 28.30280923 96.2019043 27.44311523 C99.43259842 26.60980977 102.66539579 25.78507946 105.8984375 24.9609375 C106.8891777 24.7015892 107.87991791 24.44224091 108.90068054 24.17503357 C118.34871604 21.7709529 118.34871604 21.7709529 122.66796875 22.37109375 C124.6580269 23.91168843 125.55461594 24.81495979 126.06237793 27.30615234 C126.07500671 28.4017749 126.07500671 28.4017749 126.08789062 29.51953125 C126.10380249 30.35049316 126.11971436 31.18145508 126.1361084 32.03759766 C126.13630981 32.93140137 126.13651123 33.82520508 126.13671875 34.74609375 C126.14433228 35.66696777 126.1519458 36.5878418 126.15979004 37.53662109 C126.17059432 39.48337085 126.17344281 41.43017858 126.16894531 43.37695312 C126.16797225 46.36035374 126.20960383 49.3411892 126.25390625 52.32421875 C126.25911258 54.21483837 126.26180145 56.10546696 126.26171875 57.99609375 C126.27811401 58.88989746 126.29450928 59.78370117 126.31140137 60.70458984 C126.28537147 63.02902544 126.20040651 65.10874369 125.66796875 67.37109375 C122.97426768 69.99357384 121.2367143 70.30936497 117.5300293 70.71166992 C116.3831665 70.69595947 115.23630371 70.68024902 114.0546875 70.6640625 C112.80751953 70.65439453 111.56035156 70.64472656 110.27539062 70.63476562 C108.98181641 70.60962891 107.68824219 70.58449219 106.35546875 70.55859375 C104.38610352 70.53829102 104.38610352 70.53829102 102.37695312 70.51757812 C99.14020798 70.48226818 95.9042977 70.43294655 92.66796875 70.37109375 C100.70867227 84.77944629 108.79780068 99.15674027 117.00634766 113.47021484 C118.86955665 116.72302843 120.72819809 119.97843609 122.5859375 123.234375 C130.23544758 136.6391929 137.91168984 150.02766477 145.66796875 163.37109375 C142.09801188 167.60172695 138.43724482 171.6859912 134.60546875 175.68359375 C108.09042641 204.30234691 96.1125164 236.916239 94.66796875 275.37109375 C84.77535615 277.89129743 75.69493083 278.79627393 65.49267578 278.71166992 C64.0325014 278.71082108 62.57232574 278.71130379 61.1121521 278.71299744 C57.19563484 278.7138488 53.27940022 278.69636445 49.36294794 278.67527556 C45.25238685 278.65636345 41.14181737 278.65474699 37.03121948 278.65119934 C29.26844404 278.64192116 21.50579723 278.61736542 13.74307811 278.58715087 C4.8965071 278.55347425 -3.95007046 278.53708771 -12.79668975 278.52206457 C-30.97522438 278.49081143 -49.15358297 278.4358531 -67.33203125 278.37109375 C-67.82703125 261.04609375 -67.82703125 261.04609375 -68.33203125 243.37109375 C-62.72203125 244.36109375 -57.11203125 245.35109375 -51.33203125 246.37109375 C-47.39116904 246.60131377 -43.63152376 246.75234378 -39.70703125 246.69921875 C-38.70921631 246.69734558 -37.71140137 246.69547241 -36.68334961 246.69354248 C-34.60999115 246.68691638 -32.53664308 246.67319695 -30.46337891 246.65234375 C-27.3087995 246.6208619 -24.15472195 246.61132257 -21 246.60546875 C-18.96483771 246.59630748 -16.92968044 246.58593452 -14.89453125 246.57421875 C-13.50210205 246.56784393 -13.50210205 246.56784393 -12.08154297 246.56134033 C-7.99842354 246.51703533 -4.01053013 246.37721741 0.04101562 245.85571289 C5.77877006 245.15310975 11.49128627 245.32349714 17.26171875 245.4140625 C19.6979086 245.43644255 22.13410709 245.45789884 24.5703125 245.47851562 C28.37540318 245.51561808 32.18004723 245.55878149 35.98486328 245.61791992 C39.68138012 245.67258235 43.37739778 245.70154286 47.07421875 245.7265625 C48.20259155 245.7503447 49.33096436 245.77412689 50.49353027 245.79862976 C58.08743298 245.82364821 64.62738248 244.9060718 70.51208496 239.75773621 C82.58032704 227.348478 81.77725997 201.52872163 81.72387695 185.50512695 C81.13644571 152.57562975 73.29866239 120.50792922 63.65161133 89.20654297 C63.27931396 87.99756348 62.9070166 86.78858398 62.5234375 85.54296875 C62.18981201 84.47143555 61.85618652 83.39990234 61.51245117 82.29589844 C60.75176525 79.66131696 60.18712226 77.06100649 59.66796875 74.37109375 C59.07994476 74.48606705 58.49192078 74.60104034 57.88607788 74.71949768 C51.75633534 75.91589769 45.62391357 77.0977435 39.48974609 78.27124023 C37.20191935 78.71088282 34.91479754 79.15421067 32.62841797 79.60131836 C29.33870723 80.24396285 26.04667511 80.87323846 22.75390625 81.5 C21.73493256 81.7020253 20.71595886 81.9040506 19.66610718 82.11219788 C10.47617186 83.83684635 10.47617186 83.83684635 5.66796875 82.37109375 C3.23046875 80.24609375 3.23046875 80.24609375 1.66796875 77.37109375 C1.72696087 73.94955069 1.79511318 71.50834267 3.91967773 68.74023438 C6.11539724 67.0206987 7.84705032 66.6349022 10.578125 66.08984375 C11.56039062 65.8889917 12.54265625 65.68813965 13.5546875 65.48120117 C14.60269531 65.27986572 15.65070313 65.07853027 16.73046875 64.87109375 C17.7978125 64.65751221 18.86515625 64.44393066 19.96484375 64.22387695 C29.16625378 62.40654351 38.40046402 60.81036532 47.66796875 59.37109375 C48.41040374 53.88271359 48.41628645 48.9383729 45.24511719 44.28173828 C41.63251071 39.94959613 37.64506993 35.98040743 33.50268555 32.15600586 C31.66796875 30.37109375 31.66796875 30.37109375 30.29614258 28.57250977 C28.02332145 25.68364677 26.58814622 24.5087378 22.87866211 23.95385742 C19.47633747 23.88741679 16.12817157 23.99640812 12.73046875 24.18359375 C-3.36327408 24.91145147 -3.36327408 24.91145147 -9.25 19.66015625 C-10.79609718 16.38935139 -10.72928409 13.28537234 -10.64453125 9.74609375 C-10.64775391 9.06546875 -10.65097656 8.38484375 -10.65429688 7.68359375 C-10.56732542 -0.31778055 -6.95371187 0.04631256 0 0 Z " fill="#87A4F3" transform="translate(278.33203125,85.62890625)"/>
<path d="M0 0 C5.28 0 10.56 0 16 0 C16.495 10.395 16.495 10.395 17 21 C19.64 19.47375 22.28 17.9475 25 16.375 C49.17806979 2.80119265 72.67891254 0.37571409 99.90393066 0.26177979 C103.64572776 0.24193458 107.38727814 0.19999992 111.12890625 0.16015625 C118.41920322 0.08566273 125.70939415 0.03488835 133 0 C133 0.66 133 1.32 133 2 C140.59 2 148.18 2 156 2 C153.20271056 10.70267826 150.28971305 19.3218197 147.03515625 27.86328125 C146.64065781 28.90112259 146.64065781 28.90112259 146.2381897 29.95993042 C144.91312422 33.44088148 143.57755441 36.91732361 142.22753906 40.38867188 C137.87895351 51.6868218 134.79386122 62.87308557 134 75 C130.7665396 73.96529267 127.62134978 72.84551743 124.4765625 71.5625 C123.84621094 71.30726563 123.21585938 71.05203125 122.56640625 70.7890625 C121.3055863 70.27661656 120.04991406 69.75124762 118.80078125 69.2109375 C104.4822722 63.52944493 87.81233177 64.65641715 72.71044922 64.68432617 C69.13868706 64.68748788 65.5677543 64.6639419 61.99609375 64.63867188 C32.91970815 64.55694562 7.86542952 69.23573821 -13.83203125 89.8359375 C-14.54746094 90.55007813 -15.26289063 91.26421875 -16 92 C-16.62261719 92.61101562 -17.24523437 93.22203125 -17.88671875 93.8515625 C-29.71145851 106.34061348 -35.98163498 123.41126215 -39 140 C-39.33 140 -39.66 140 -40 140 C-41.08774467 104.53952369 -33.38165312 71.03009291 -9 44 C-7.95223389 43.21230225 -7.95223389 43.21230225 -6.88330078 42.40869141 C-3.03298772 39.39208391 -0.91311468 36.88711247 -0.26928711 31.99389648 C0.10619847 27.16305086 0.05920254 22.34145222 0 17.5 C0.00810085 15.80206222 0.01978631 14.10413754 0.03515625 12.40625 C0.07152516 8.26827575 0.0340771 4.14036742 0 0 Z " fill="#86A3F3" transform="translate(40,203)"/>
<path d="M0 0 C7.63301877 -0.04661337 15.26602253 -0.0820151 22.8991518 -0.10362434 C26.44461963 -0.11400264 29.98998913 -0.12805106 33.53540039 -0.15087891 C37.62386955 -0.17703461 41.71223758 -0.18652192 45.80078125 -0.1953125 C47.68426018 -0.21079636 47.68426018 -0.21079636 49.60578918 -0.22659302 C60.01851308 -0.22790337 69.54422291 0.81554972 79.0625 5.1875 C79.74586426 5.49574707 80.42922852 5.80399414 81.13330078 6.12158203 C86.90967037 8.80702731 92.04877064 11.97502103 97 16 C97.84046875 16.67804688 98.6809375 17.35609375 99.546875 18.0546875 C113.92681316 30.29942272 124.11788219 48.05400427 126 67 C126.42779719 76.67743064 126.18023548 86.31234301 126 96 C114.45 96 102.9 96 91 96 C90.67 99.96 90.34 103.92 90 108 C85.61480002 125.36609075 74.98284886 140.15412789 60 150 C52.52914412 154.19834346 44.5792698 158.00241049 36 159 C34.95585938 159.13148438 33.91171875 159.26296875 32.8359375 159.3984375 C12.43436071 161.43407155 -5.45727663 155.5950791 -21.3125 142.6875 C-32.05821872 132.68832595 -39.83179203 118.53079727 -42 104 C-42 101.36 -42 98.72 -42 96 C-32.43 96 -22.86 96 -13 96 C-11.68 100.29 -10.36 104.58 -9 109 C-3.65452503 118.38427827 2.32801886 124.13598469 12.48046875 128.08203125 C21.25468218 130.37053309 31.92155412 130.74930168 40.01953125 126.25390625 C40.67308594 125.84011719 41.32664062 125.42632812 42 125 C42.76699219 124.57589844 43.53398437 124.15179688 44.32421875 123.71484375 C53.45184853 118.29861385 57.80691268 109.89038328 61 100 C61.359616 98.33880609 61.70039205 96.67305827 62 95 C63.98 95 65.96 95 68 95 C67.4311083 66.36054618 65.06256176 42.93200346 44.625 21.25 C32.39202884 9.70582226 16.65337214 2.85037468 0 1 C0 0.67 0 0.34 0 0 Z " fill="#5884BA" transform="translate(85,268)"/>
<path d="M0 0 C0.99 -0.03287109 0.99 -0.03287109 2 -0.06640625 C5.30817683 0.97386029 6.27847614 2.59172874 8 5.5625 C8.46825412 8.68649661 8.37926882 11.7253155 8.25 14.875 C8.23195313 15.71095703 8.21390625 16.54691406 8.1953125 17.40820312 C8.14841126 19.46013228 8.07667411 21.51146756 8 23.5625 C9.03898437 23.53027344 10.07796875 23.49804688 11.1484375 23.46484375 C25.93456175 23.83974548 39.9519679 33.41070165 50 43.5625 C50.69738281 44.22636719 51.39476562 44.89023438 52.11328125 45.57421875 C65.15780932 58.87203863 69.90406406 77.40662339 70 95.5625 C69 96.5625 69 96.5625 66.70613766 96.68554783 C65.68202565 96.68462604 64.65791365 96.68370424 63.60276794 96.68275452 C61.84635483 96.68481651 61.84635483 96.68481651 60.05445862 96.68692017 C58.75830124 96.68332489 57.46214386 96.67972961 56.12670898 96.67602539 C54.75712079 96.67574352 53.38753244 96.67590125 52.01794434 96.6764679 C48.28877052 96.67675588 44.55962859 96.67085909 40.83046222 96.66389394 C36.93735587 96.65766047 33.04424887 96.65705661 29.15113831 96.65586853 C21.77401854 96.65275519 14.39691351 96.64454178 7.01980025 96.63451904 C-1.37667543 96.62335797 -9.77315179 96.61784747 -18.16963303 96.61282361 C-35.44643056 96.60235916 -52.72321372 96.58475968 -70 96.5625 C-70.00710676 95.13054111 -70.0121609 93.69857194 -70.01635742 92.26660156 C-70.01939377 91.46917542 -70.02243011 90.67174927 -70.02555847 89.85015869 C-69.83853021 73.1098448 -62.45466887 55.72741791 -51.0625 43.49609375 C-38.64926571 31.8586866 -25.32506336 26.08440453 -9 22.5625 C-8.96132812 20.68304688 -8.96132812 20.68304688 -8.921875 18.765625 C-8.86558831 17.11454877 -8.8082411 15.46350845 -8.75 13.8125 C-8.73582031 12.9875 -8.72164062 12.1625 -8.70703125 11.3125 C-8.46117063 5.2151567 -8.46117063 5.2151567 -6.203125 2.01953125 C-3.89568725 0.49351302 -2.73789754 -0.00534746 0 0 Z " fill="#EA3942" transform="translate(91,83.4375)"/>
<path d="M0 0 C10.45297153 -0.77429419 17.93571681 5.1146598 25.5546875 11.671875 C37.9725142 23.47279044 47.0060149 38.53692299 47.703125 56.04296875 C47.71609626 57.96090955 47.70792094 59.87909815 47.6796875 61.796875 C47.66881104 62.8067749 47.65793457 63.8166748 47.64672852 64.85717773 C47.27257027 82.35507618 40.70439275 97.84378465 28.3046875 110.359375 C13.06507733 123.69931077 -4.11064424 130.17269562 -24.359375 129.1796875 C-43.46975266 127.20830117 -59.1369994 119.01074028 -71.6953125 104.359375 C-78.94397842 94.65551578 -84.31145245 83.47264345 -85.6953125 71.359375 C-85.82550781 70.30492187 -85.95570313 69.25046875 -86.08984375 68.1640625 C-86.66016019 59.83164259 -86.66016019 59.83164259 -84.1875 56.05859375 C-82.81691029 54.63156799 -81.41199769 53.23697939 -79.98046875 51.87109375 C-77.162887 48.77416201 -75.48688798 45.52279228 -73.6328125 41.796875 C-69.44133446 33.52938383 -64.81799579 27.11411644 -56.6953125 22.359375 C-55.73511886 23.94158087 -54.77723452 25.52518831 -53.8203125 27.109375 C-53.28664063 27.99109375 -52.75296875 28.8728125 -52.203125 29.78125 C-51.70554687 30.63203125 -51.20796875 31.4828125 -50.6953125 32.359375 C-50.28023438 33.04515625 -49.86515625 33.7309375 -49.4375 34.4375 C-48.48317287 36.90870499 -48.76021417 37.9000664 -49.6953125 40.359375 C-50.51423423 41.99168521 -51.34922187 43.61598071 -52.1953125 45.234375 C-56.53144542 54.70075821 -56.72238806 64.62554914 -53.75390625 74.546875 C-50.04926856 84.38945484 -44.68412178 89.94270813 -35.6953125 95.359375 C-35.07140625 95.74222656 -34.4475 96.12507813 -33.8046875 96.51953125 C-26.18168289 100.21085105 -15.25094846 99.50721161 -7.20703125 97.48046875 C2.61620313 93.6984611 9.49458993 87.68804907 14.3046875 78.359375 C14.9028125 77.225 15.5009375 76.090625 16.1171875 74.921875 C18.81444862 67.10911865 18.84932406 55.82897498 15.5546875 48.171875 C14.84440946 46.8784213 14.09727561 45.60409242 13.3046875 44.359375 C12.6653125 43.286875 12.0259375 42.214375 11.3671875 41.109375 C4.45167148 31.88868698 -3.55907439 27.65167436 -14.6953125 25.359375 C-15.8709375 25.34519531 -17.0465625 25.33101563 -18.2578125 25.31640625 C-21.6953125 24.359375 -21.6953125 24.359375 -23.00170898 22.68798828 C-24.18776625 20.43096009 -25.18104073 18.16205634 -26.1328125 15.796875 C-26.48279297 14.99056641 -26.83277344 14.18425781 -27.19335938 13.35351562 C-28.05191407 11.36590271 -28.87693627 9.36386536 -29.6953125 7.359375 C-19.83116685 4.1167073 -10.31392359 1.37518981 0 0 Z " fill="#31363B" transform="translate(464.6953125,298.640625)"/>
<path d="M0 0 C1.17154293 2.28929053 2.33738074 4.58118362 3.5 6.875 C3.83386719 7.52597656 4.16773438 8.17695313 4.51171875 8.84765625 C7 13.7734375 7 13.7734375 7 16 C7.886875 15.9175 8.77375 15.835 9.6875 15.75 C19.46399604 15.75 28.60286465 19.91694574 35.625 26.4375 C44.49186271 36.00437819 47.59801235 44.60772849 47.3359375 57.55859375 C46.85510466 66.88714822 42.63146243 74.37642098 36.24609375 81.02734375 C26.24736454 89.80883636 15.93857983 91.88209816 3.00146484 91.18652344 C-5.75401412 90.37057004 -12.93075332 85.05876439 -19 79 C-26.60442733 69.4904635 -28.85566781 58.4262416 -27.73046875 46.47265625 C-26.72002812 41.66901068 -24.69843896 37.80547118 -22.1796875 33.62109375 C-20.74018755 30.4227346 -20.87903941 29.28748082 -22 26 C-22.96494952 23.86962668 -23.98928035 21.76543591 -25.0625 19.6875 C-25.61035156 18.61886719 -26.15820312 17.55023438 -26.72265625 16.44921875 C-27.14417969 15.64097656 -27.56570313 14.83273437 -28 14 C-20.52447848 7.86081064 -10.08214641 0 0 0 Z " fill="#E0E0DF" transform="translate(436,307)"/>
<path d="M0 0 C9.57 0 19.14 0 29 0 C30.32 4.29 31.64 8.58 33 13 C38.34547497 22.38427827 44.32801886 28.13598469 54.48046875 32.08203125 C63.25468218 34.37053309 73.92155412 34.74930168 82.01953125 30.25390625 C82.67308594 29.84011719 83.32664062 29.42632812 84 29 C84.76699219 28.57589844 85.53398437 28.15179688 86.32421875 27.71484375 C97.11025486 21.31453472 100.24034732 11.38953605 104 0 C113.57 0 123.14 0 133 0 C131.23660766 21.16070811 123.42706907 36.34858995 107.375 50.1875 C99.06709074 56.57720245 88.47181026 61.78234764 78 63 C76.95585938 63.13148438 75.91171875 63.26296875 74.8359375 63.3984375 C54.43436071 65.43407155 36.54272337 59.5950791 20.6875 46.6875 C9.94178128 36.68832595 2.16820797 22.53079727 0 8 C0 5.36 0 2.72 0 0 Z " fill="#31363B" transform="translate(43,364)"/>
<path d="M0 0 C0.66 0.33 1.32 0.66 2 1 C2 1.66 2 2.32 2 3 C3.88578899 4.24451114 3.88578899 4.24451114 6.3125 5.5 C23.27574698 15.39923195 32.10576086 30.49264621 38.19921875 48.5546875 C39.3493266 54.93918866 39 61.51273531 39 68 C58.14 68 77.28 68 97 68 C97 68.33 97 68.66 97 69 C51.13 69 5.26 69 -42 69 C-42 49.36150198 -36.73792433 30.67587905 -23.07421875 15.9375 C-16.49458027 9.79154767 -8.47775315 3.30746424 0 0 Z " fill="#F94E51" transform="translate(63,111)"/>
<path d="M0 0 C1.27859894 -0.00708481 2.55719788 -0.01416962 3.87454224 -0.02146912 C5.28411901 -0.0191755 6.69369544 -0.01666583 8.10327148 -0.01396179 C9.5934169 -0.01831079 11.08356008 -0.02349457 12.57369995 -0.02944946 C16.61495826 -0.0428291 20.656123 -0.0434194 24.69739914 -0.04088616 C28.07226215 -0.03981596 31.44710626 -0.04470097 34.82196522 -0.04949158 C42.78326139 -0.06058273 50.74451038 -0.06102608 58.70581055 -0.05497742 C66.91799644 -0.04893411 75.13001116 -0.06125854 83.34216785 -0.08254749 C90.3953781 -0.10015944 97.44853383 -0.10616558 104.50176525 -0.10290974 C108.71331119 -0.10109643 112.92473496 -0.10373803 117.13626099 -0.11762428 C121.09585587 -0.1301918 125.05518358 -0.12826888 129.01477432 -0.11521339 C130.46720596 -0.11284587 131.91965635 -0.11558862 133.3720665 -0.12383652 C135.35592993 -0.13428951 137.33986935 -0.12440873 139.32373047 -0.11352539 C140.43352768 -0.11369313 141.54332489 -0.11386087 142.68675232 -0.1140337 C146.06264683 0.31117682 147.9376531 1.25492499 150.66186523 3.26069641 C153.30607915 7.54180465 153.10453065 12.38252354 152.66186523 17.26069641 C151.70291883 20.48001648 151.03057544 21.89198621 148.66186523 24.26069641 C145.29836537 25.45354889 142.02459727 25.38902833 138.48194885 25.39440918 C137.21313873 25.39867416 135.94432861 25.40293915 134.6370697 25.40733337 C133.23330685 25.40698387 131.82954403 25.40652235 130.42578125 25.40596008 C128.94563716 25.40895264 127.46549385 25.41235539 125.98535156 25.4161377 C121.96678165 25.42497134 117.94823304 25.42731552 113.92965436 25.42795348 C110.57472952 25.42890326 107.21980963 25.43258229 103.8648867 25.43612558 C95.95012373 25.44426746 88.03537214 25.44671003 80.12060547 25.44599915 C71.95562674 25.44539817 63.79071405 25.45595457 55.62575203 25.47174281 C48.61503239 25.48481614 41.60433434 25.49018314 34.5936026 25.48954374 C30.40665773 25.48928872 26.21977155 25.492142 22.03283882 25.50272179 C18.09547163 25.51239948 14.15821931 25.51248423 10.22084808 25.50520515 C8.77647929 25.50415895 7.33210335 25.50652431 5.88774681 25.51256561 C3.91476745 25.52028302 1.94174898 25.51444248 -0.03123474 25.50793457 C-1.13495643 25.50847934 -2.23867811 25.50902411 -3.37584591 25.50958538 C-6.43396507 25.25264483 -8.60123293 24.62731108 -11.33813477 23.26069641 C-13.79081145 20.01016104 -13.60632974 16.72720122 -13.58813477 12.76069641 C-13.59329102 11.63663391 -13.59844727 10.51257141 -13.60375977 9.35444641 C-13.34323791 6.32013307 -13.16164087 4.67739124 -11.33813477 2.26069641 C-7.47249036 0.33023134 -4.29079228 0.00793698 0 0 Z " fill="#0D6E9A" transform="translate(21.338134765625,178.7393035888672)"/>
<path d="M0 0 C1.74838417 -0.01913956 1.74838417 -0.01913956 3.53208923 -0.03866577 C5.43348412 -0.04200424 5.43348412 -0.04200424 7.37329102 -0.04541016 C8.67613541 -0.05206696 9.9789798 -0.05872375 11.32130432 -0.06558228 C14.08793439 -0.07757687 16.85443951 -0.08126159 19.62109375 -0.08007812 C23.13799781 -0.07987643 26.65408008 -0.10701098 30.17079067 -0.14162254 C33.55079987 -0.16947144 36.93066898 -0.16804813 40.31079102 -0.17041016 C41.56016953 -0.18478119 42.80954803 -0.19915222 44.0967865 -0.21395874 C55.35833937 -0.15592052 64.24849893 2.16696104 72.44360352 10.09912109 C80.61499405 19.0700606 84.9426343 29.31402366 86.43969727 41.29052734 C39.90969727 40.79552734 39.90969727 40.79552734 -7.56030273 40.29052734 C-7.56030273 0.05605188 -7.56030273 0.05605188 0 0 Z " fill="#FC8F31" transform="translate(180.560302734375,163.70947265625)"/>
<path d="M0 0 C24.42 0 48.84 0 74 0 C72.93437515 9.59062361 70.55673426 18.37663909 63 25 C52.05567605 32.92751183 42.36205984 35.46288566 29 34 C19.24005331 31.70746976 11.08420686 25.83320838 5.33984375 17.62890625 C1.99095981 11.83914481 0 6.7616376 0 0 Z " fill="#E0E0E0" transform="translate(72,364)"/>
<path d="M0 0 C2.77559618 5.40744247 5.55064248 10.81516665 8.32519531 16.22314453 C9.26775512 18.06013481 10.21046114 19.89705008 11.15332031 21.73388672 C12.51406341 24.38489044 13.87426812 27.03616982 15.234375 29.6875 C15.85962067 30.90518066 15.85962067 30.90518066 16.49749756 32.14746094 C17.28911495 33.69108496 18.07912566 35.2355343 18.86730957 36.78091431 C19.63202248 38.27908489 20.40126253 39.77495207 21.17468262 41.26864624 C24.03961298 46.86201004 24.70196929 50.00417356 23 56 C20.67536823 60.92821936 17.87579162 63.17216308 13.0078125 65.30078125 C9.29260735 66.59459783 6.74059071 66.69834184 3.0625 65.22265625 C-7.69756955 59.49617984 -12.42532843 44.55617477 -17.75 34.125 C-18.52442957 32.61442436 -19.2991671 31.10400656 -20.07421875 29.59375 C-25.77377531 18.47932249 -25.77377531 18.47932249 -28 14 C-20.79399071 7.75479195 -9.88911135 0 0 0 Z " fill="#EEA336" transform="translate(436,307)"/>
<path d="M0 0 C0.82876144 -0.00902847 1.65752289 -0.01805695 2.51139832 -0.02735901 C4.26740904 -0.04188122 6.02347412 -0.05075313 7.77954102 -0.05444336 C10.46008309 -0.06631596 13.1383052 -0.11545787 15.81835938 -0.16601562 C17.52472835 -0.1754826 19.23111147 -0.18271632 20.9375 -0.1875 C21.73662308 -0.20703232 22.53574615 -0.22656464 23.35908508 -0.24668884 C27.56245956 -0.21280492 29.161706 -0.04122645 32.53222656 2.70385742 C33.58941895 4.0241394 33.58941895 4.0241394 34.66796875 5.37109375 C35.18738037 5.93538086 35.70679199 6.49966797 36.24194336 7.08105469 C37.70191752 8.75649646 39.1579958 10.43482917 40.60546875 12.12109375 C41.40259277 13.04752686 41.40259277 13.04752686 42.21582031 13.99267578 C45.55893367 17.92859074 48.4789245 21.94965488 51.22265625 26.328125 C53.89755453 30.10912987 57.28935072 33.22400538 60.66796875 36.37109375 C60.17296875 37.36109375 60.17296875 37.36109375 59.66796875 38.37109375 C58.59546875 38.61859375 57.52296875 38.86609375 56.41796875 39.12109375 C51.68739757 40.69795081 50.51631045 42.40067804 47.66796875 46.37109375 C44.21134429 43.67324051 41.20887123 40.95450786 38.35546875 37.62109375 C37.7931958 36.97736816 37.23092285 36.33364258 36.65161133 35.67041016 C35.33363295 34.14269073 34.04908602 32.58545493 32.80053711 31.00048828 C29.71547853 27.41876735 27.33524134 24.7412136 22.61499023 23.69335938 C19.2174543 23.59384252 15.93123401 23.73012071 12.54296875 23.99609375 C-1.72810637 24.81849469 -1.72810637 24.81849469 -7.33203125 21.37109375 C-10.13947465 18.86669413 -10.31252242 17.56450391 -10.6953125 13.76953125 C-10.69399237 12.42827925 -10.67664016 11.08696201 -10.64453125 9.74609375 C-10.64775391 9.06546875 -10.65097656 8.38484375 -10.65429688 7.68359375 C-10.56732542 -0.31778055 -6.95371187 0.04631256 0 0 Z " fill="#86A4F3" transform="translate(278.33203125,85.62890625)"/>
<path d="M0 0 C1.42826175 0.00050027 2.85654878 0.01155229 4.28466797 0.03173828 C5.28421509 0.03475952 5.28421509 0.03475952 6.30395508 0.0378418 C8.79499182 0.0483119 11.2859305 0.07623454 13.77685547 0.10205078 C19.34560547 0.14330078 24.91435547 0.18455078 30.65185547 0.22705078 C30.65185547 13.42705078 30.65185547 26.62705078 30.65185547 40.22705078 C18.77185547 40.22705078 6.89185547 40.22705078 -5.34814453 40.22705078 C-5.39400081 34.85167598 -5.43384213 29.4769769 -5.45800781 24.1015625 C-5.46807937 22.27211205 -5.48173729 20.44267775 -5.49902344 18.61328125 C-5.5232213 15.98710144 -5.53461585 13.36113403 -5.54345703 10.73486328 C-5.5537796 9.91398224 -5.56410217 9.0931012 -5.57473755 8.24734497 C-5.57513637 6.23915936 -5.47063993 4.23149696 -5.34814453 2.22705078 C-3.34814453 0.22705078 -3.34814453 0.22705078 0 0 Z " fill="#EEA235" transform="translate(178.34814453125,163.77294921875)"/>
<path d="M0 0 C3.62270563 0.10503133 5.25025813 0.78343793 8.03149414 3.08789062 C10.67570806 7.36899887 10.47415956 12.20971776 10.03149414 17.08789062 C9.07254774 20.30721069 8.40020435 21.71918042 6.03149414 24.08789062 C3.74093628 24.32839966 3.74093628 24.32839966 0.84741211 24.31494141 C-0.23355743 24.31479034 -1.31452698 24.31463928 -2.42825317 24.31448364 C-3.59911469 24.30416107 -4.7699762 24.2938385 -5.97631836 24.28320312 C-7.17207489 24.28037323 -8.36783142 24.27754333 -9.599823 24.27462769 C-13.43115105 24.26340367 -17.26224808 24.23829494 -21.09350586 24.21289062 C-23.68595041 24.2028637 -26.27839861 24.19373736 -28.87084961 24.18554688 C-35.23682448 24.16345705 -41.60262596 24.12891196 -47.96850586 24.08789062 C-47.96850586 16.49789062 -47.96850586 8.90789062 -47.96850586 1.08789062 C-41.83041943 0.94472826 -35.69232557 0.8020605 -29.55419922 0.66064453 C-27.46792949 0.6124314 -25.38166635 0.56393229 -23.29541016 0.51513672 C-20.2893237 0.4448776 -17.28321472 0.37566141 -14.27709961 0.30664062 C-13.35078232 0.28476685 -12.42446503 0.26289307 -11.47007751 0.24035645 C-7.64684733 0.15341267 -3.82328768 0.08467447 0 0 Z " fill="#09627A" transform="translate(163.968505859375,178.912109375)"/>
<path d="M0 0 C2.01906478 1.53507828 2.88958732 2.42708311 3.3742218 4.94178772 C3.37359238 5.67521896 3.37296295 6.40865021 3.37231445 7.16430664 C3.38165764 8.41559105 3.38165764 8.41559105 3.39118958 9.69215393 C3.38197983 10.5890947 3.37277008 11.48603546 3.36328125 12.41015625 C3.36377975 13.33340195 3.36427826 14.25664764 3.36479187 15.20787048 C3.36245179 17.1588659 3.35272717 19.10986436 3.33618164 21.06079102 C3.31256333 24.05447228 3.31562432 27.04726473 3.32226562 30.04101562 C3.31668981 31.93490117 3.30958054 33.82878294 3.30078125 35.72265625 C3.30214836 37.07110374 3.30214836 37.07110374 3.30354309 38.4467926 C3.29401108 39.27783005 3.28447906 40.10886749 3.2746582 40.96508789 C3.27005081 41.69772354 3.26544342 42.43035919 3.26069641 43.18519592 C3 45 3 45 1 47 C-1.61376953 47.22705078 -1.61376953 47.22705078 -4.8828125 47.1953125 C-5.93355957 47.19031738 -6.98430664 47.18532227 -8.06689453 47.18017578 C-9.40606934 47.16196777 -10.74524414 47.14375977 -12.125 47.125 C-16.37375 47.08375 -20.6225 47.0425 -25 47 C-25 33.47 -25 19.94 -25 6 C-20.41041308 4.03303418 -16.65805194 2.48797341 -11.9375 1.3125 C-10.46603516 0.93544922 -10.46603516 0.93544922 -8.96484375 0.55078125 C-5.84055779 -0.0296197 -3.16716024 -0.30309855 0 0 Z " fill="#E0E1E2" transform="translate(401,108)"/>
<path d="M0 0 C0.495 4.455 0.495 4.455 1 9 C2.44375 9.0825 3.8875 9.165 5.375 9.25 C7.8359375 9.390625 7.8359375 9.390625 10 10 C11.2890625 12.046875 11.2890625 12.046875 12 14 C6.88790076 15.86456547 1.76357497 16.95189058 -3.5625 17.98046875 C-4.47201416 18.15757889 -5.38152832 18.33468903 -6.31860352 18.51716614 C-8.2344301 18.88828049 -10.15070086 19.2571083 -12.06738281 19.6237793 C-14.99236823 20.18603299 -17.91405552 20.7636613 -20.8359375 21.34179688 C-22.70294209 21.70147158 -24.57012413 22.06022666 -26.4375 22.41796875 C-27.74086304 22.67878487 -27.74086304 22.67878487 -29.07055664 22.94487 C-33.64596127 23.80186043 -37.42528252 24.31024735 -42 23 C-44.4375 20.875 -44.4375 20.875 -46 18 C-45.94104004 14.58032253 -45.87114316 12.1390167 -43.75268555 9.36914062 C-41.53625946 7.63774106 -39.77514098 7.26082076 -37.01953125 6.71875 C-36.02711426 6.51789795 -35.03469727 6.3170459 -34.01220703 6.11010742 C-32.42835205 5.80810425 -32.42835205 5.80810425 -30.8125 5.5 C-29.7385498 5.28641846 -28.66459961 5.07283691 -27.55810547 4.8527832 C-24.37428219 4.22311276 -21.18771294 3.60963291 -18 3 C-16.30855503 2.67077176 -14.61714476 2.34136519 -12.92578125 2.01171875 C-2.47741699 0 -2.47741699 0 0 0 Z " fill="#0D6D9A" transform="translate(326,145)"/>
<path d="M0 0 C5.28 0 10.56 0 16 0 C16.21692086 3.69066741 16.37485625 7.36852457 16.5 11.0625 C16.60054687 12.62000977 16.60054687 12.62000977 16.703125 14.20898438 C16.89532604 21.77690034 16.89532604 21.77690034 14.46484375 25.09716797 C12.39544746 26.93623762 10.29542824 28.44987252 8 30 C5.36 31.98 2.72 33.96 0 36 C0 24.12 0 12.24 0 0 Z " fill="#DFE0E1" transform="translate(40,203)"/>
<path d="M0 0 C21.13435925 -2.0780033 21.13435925 -2.0780033 26.9765625 2.56640625 C30.49771857 6.09684145 34 9.83946269 34 15 C32.948125 15.20625 31.89625 15.4125 30.8125 15.625 C26.35592764 16.85689805 24.64156418 19.31781963 22 23 C17.80312963 19.72439386 14.38830318 16.25206652 10.9453125 12.19921875 C8.02836878 8.90154945 4.87641533 5.85467469 1.72265625 2.78515625 C0 1 0 1 0 0 Z " fill="#0D6E9A" transform="translate(304,109)"/>
<path d="M0 0 C0.66 -0.02191406 1.32 -0.04382813 2 -0.06640625 C5.30817683 0.97386029 6.27847614 2.59172874 8 5.5625 C8.46825412 8.68649661 8.37926882 11.7253155 8.25 14.875 C8.23195313 15.71095703 8.21390625 16.54691406 8.1953125 17.40820312 C8.14841126 19.46013228 8.07667411 21.51146756 8 23.5625 C2.72 23.5625 -2.56 23.5625 -8 23.5625 C-8.10800947 20.47822954 -8.18731002 17.39774253 -8.25 14.3125 C-8.28351563 13.43980469 -8.31703125 12.56710938 -8.3515625 11.66796875 C-8.45002581 5.21862171 -8.45002581 5.21862171 -6.234375 1.98828125 C-3.91504019 0.50828613 -2.72408262 -0.00532047 0 0 Z " fill="#FB4D50" transform="translate(91,83.4375)"/>
</svg>
